<?xml version="1.0" standalone="no"?>
<!DOCTYPE svg PUBLIC "-//W3C//DTD SVG 20010904//EN"
 "http://www.w3.org/TR/2001/REC-SVG-20010904/DTD/svg10.dtd">
<svg version="1.0" xmlns="http://www.w3.org/2000/svg"
 width="175.000000pt" height="175.000000pt" viewBox="0 0 175.000000 175.000000"
 preserveAspectRatio="xMidYMid meet">

<g transform="translate(0.000000,175.000000) scale(0.100000,-0.100000)"
fill="#000000" stroke="none">
<path d="M860 1555 c0 -8 9 -15 20 -15 11 0 20 7 20 15 0 8 -9 15 -20 15 -11
0 -20 -7 -20 -15z"/>
<path d="M910 1555 c0 -8 2 -15 4 -15 2 0 6 7 10 15 3 8 1 15 -4 15 -6 0 -10
-7 -10 -15z"/>
<path d="M770 1476 c-41 -18 -76 -40 -78 -49 -3 -16 -11 -18 -247 -66 -129
-27 -129 -27 -121 4 5 19 2 25 -9 25 -12 0 -14 -6 -9 -26 4 -17 2 -29 -7 -35
-10 -6 -11 -9 -1 -9 9 0 13 -28 14 -102 l2 -103 6 95 6 95 2 -92 2 -93 345 0
345 0 0 159 c0 117 -3 162 -12 168 -22 13 -142 63 -153 63 -5 0 -44 -16 -85
-34z m130 -35 c5 -11 10 -84 10 -165 l0 -146 -55 0 -55 0 0 147 c0 122 3 149
17 165 22 24 69 24 83 -1z m-120 -76 c0 -14 -4 -25 -10 -25 -5 0 -10 11 -10
25 0 14 5 25 10 25 6 0 10 -11 10 -25z m170 0 c0 -14 -4 -25 -10 -25 -5 0 -10
11 -10 25 0 14 5 25 10 25 6 0 10 -11 10 -25z m-322 -17 c8 -8 12 -48 12 -115
l0 -103 -45 0 -45 0 0 103 c0 108 7 127 45 127 12 0 26 -5 33 -12z m-101 -55
c-3 -10 -5 -4 -5 12 0 17 2 24 5 18 2 -7 2 -21 0 -30z m-83 8 c13 -15 16 -34
14 -92 l-3 -74 -35 0 -35 0 -3 76 c-2 60 1 80 13 93 21 21 28 20 49 -3z m336
-6 c0 -14 -4 -25 -10 -25 -5 0 -10 11 -10 25 0 14 5 25 10 25 6 0 10 -11 10
-25z m170 0 c0 -14 -4 -25 -10 -25 -5 0 -10 11 -10 25 0 14 5 25 10 25 6 0 10
-11 10 -25z m-283 -77 c-2 -13 -4 -3 -4 22 0 25 2 35 4 23 2 -13 2 -33 0 -45z
m-310 -5 c-3 -10 -5 -2 -5 17 0 19 2 27 5 18 2 -10 2 -26 0 -35z m120 0 c-3
-10 -5 -2 -5 17 0 19 2 27 5 18 2 -10 2 -26 0 -35z m50 0 c-3 -10 -5 -2 -5 17
0 19 2 27 5 18 2 -10 2 -26 0 -35z m253 -17 c0 -30 -4 -58 -10 -61 -6 -4 -10
17 -10 54 0 34 4 61 10 61 6 0 10 -24 10 -54z m170 -6 c0 -27 -4 -52 -10 -55
-6 -4 -10 17 -10 55 0 38 4 59 10 55 6 -3 10 -28 10 -55z m-593 -47 c-3 -10
-5 -2 -5 17 0 19 2 27 5 18 2 -10 2 -26 0 -35z m120 0 c-3 -10 -5 -2 -5 17 0
19 2 27 5 18 2 -10 2 -26 0 -35z m50 0 c-3 -10 -5 -2 -5 17 0 19 2 27 5 18 2
-10 2 -26 0 -35z m140 0 c-3 -10 -5 -2 -5 17 0 19 2 27 5 18 2 -10 2 -26 0
-35z"/>
<path d="M305 1430 c-4 -6 -3 -16 3 -22 6 -6 12 -6 17 2 4 6 3 16 -3 22 -6 6
-12 6 -17 -2z"/>
<path d="M1426 1433 c-11 -11 -6 -23 9 -23 8 0 15 4 15 9 0 13 -16 22 -24 14z"/>
<path d="M1030 1265 l0 -145 205 0 205 0 0 99 c0 86 2 100 18 104 16 4 16 5 0
6 -21 1 -24 31 -6 49 9 9 7 12 -10 12 -19 0 -21 -4 -16 -25 3 -14 2 -25 -3
-25 -8 0 -201 38 -306 60 -93 19 -87 29 -87 -135z m134 76 c14 -15 16 -35 14
-112 l-3 -94 -45 0 -45 0 -3 89 c-2 67 1 94 13 112 19 29 46 31 69 5z m46 -36
c0 -14 -4 -25 -10 -25 -5 0 -10 11 -10 25 0 14 5 25 10 25 6 0 10 -11 10 -25z
m150 -90 l0 -85 -35 0 -35 0 0 85 c0 69 3 86 17 94 11 6 24 6 35 0 15 -8 18
-24 18 -94z m-290 30 c0 -19 -4 -35 -10 -35 -5 0 -10 16 -10 35 0 19 5 35 10
35 6 0 10 -16 10 -35z m140 -10 c0 -14 -4 -25 -10 -25 -5 0 -10 11 -10 25 0
14 5 25 10 25 6 0 10 -11 10 -25z m57 -22 c-3 -10 -5 -2 -5 17 0 19 2 27 5 18
2 -10 2 -26 0 -35z m123 23 c0 -14 -4 -28 -10 -31 -6 -4 -10 7 -10 24 0 17 5
31 10 31 6 0 10 -11 10 -24z m-320 -77 c0 -10 -4 -19 -10 -19 -5 0 -10 12 -10
26 0 14 4 23 10 19 6 -3 10 -15 10 -26z m140 6 c0 -14 -4 -25 -10 -25 -5 0
-10 11 -10 25 0 14 5 25 10 25 6 0 10 -11 10 -25z m57 -22 c-3 -10 -5 -2 -5
17 0 19 2 27 5 18 2 -10 2 -26 0 -35z m123 23 c0 -14 -4 -28 -10 -31 -6 -4
-10 7 -10 24 0 17 5 31 10 31 6 0 10 -11 10 -24z"/>
<path d="M223 978 c2 -130 3 -133 25 -136 20 -3 22 0 22 51 0 50 2 55 28 65
44 18 105 32 135 32 l27 0 0 -89 c0 -81 2 -90 20 -95 11 -3 29 -9 40 -12 19
-5 20 -1 20 95 0 114 -3 111 90 91 87 -20 90 -23 90 -112 l0 -78 -87 -1 c-49
-1 -79 -3 -68 -6 11 -2 45 -13 76 -24 47 -16 83 -19 235 -19 162 0 186 3 254
25 l75 24 -93 1 -93 0 3 82 3 83 40 13 c22 7 61 16 88 19 l47 6 0 -102 0 -103
33 7 c17 4 35 9 40 12 4 2 7 45 7 95 l0 91 48 -6 c26 -3 65 -12 87 -19 40 -13
40 -13 43 -71 l3 -58 32 3 32 3 3 133 3 132 -655 0 -654 0 1 -132z m34 90 c-3
-8 -6 -5 -6 6 -1 11 2 17 5 13 3 -3 4 -12 1 -19z m40 0 c-3 -8 -6 -5 -6 6 -1
11 2 17 5 13 3 -3 4 -12 1 -19z m20 0 c-3 -8 -6 -5 -6 6 -1 11 2 17 5 13 3 -3
4 -12 1 -19z m60 0 c-3 -8 -6 -5 -6 6 -1 11 2 17 5 13 3 -3 4 -12 1 -19z m60
0 c-3 -8 -6 -5 -6 6 -1 11 2 17 5 13 3 -3 4 -12 1 -19z m67 7 c-4 -8 -8 -15
-10 -15 -2 0 -4 7 -4 15 0 8 4 15 10 15 5 0 7 -7 4 -15z m46 0 c0 -8 -4 -15
-10 -15 -5 0 -10 7 -10 15 0 8 5 15 10 15 6 0 10 -7 10 -15z m80 6 c0 -5 -6
-11 -13 -14 -8 -3 -14 1 -14 9 0 8 6 14 14 14 7 0 13 -4 13 -9z m47 -13 c-3
-8 -6 -5 -6 6 -1 11 2 17 5 13 3 -3 4 -12 1 -19z m40 0 c-3 -8 -6 -5 -6 6 -1
11 2 17 5 13 3 -3 4 -12 1 -19z m20 0 c-3 -8 -6 -5 -6 6 -1 11 2 17 5 13 3 -3
4 -12 1 -19z m63 7 c0 -8 -2 -15 -4 -15 -2 0 -6 7 -10 15 -3 8 -1 15 4 15 6 0
10 -7 10 -15z m17 -7 c-3 -8 -6 -5 -6 6 -1 11 2 17 5 13 3 -3 4 -12 1 -19z
m40 0 c-3 -8 -6 -5 -6 6 -1 11 2 17 5 13 3 -3 4 -12 1 -19z m20 0 c-3 -8 -6
-5 -6 6 -1 11 2 17 5 13 3 -3 4 -12 1 -19z m30 0 c-3 -8 -6 -5 -6 6 -1 11 2
17 5 13 3 -3 4 -12 1 -19z m20 0 c-3 -8 -6 -5 -6 6 -1 11 2 17 5 13 3 -3 4
-12 1 -19z m30 0 c-3 -8 -6 -5 -6 6 -1 11 2 17 5 13 3 -3 4 -12 1 -19z m30 0
c-3 -8 -6 -5 -6 6 -1 11 2 17 5 13 3 -3 4 -12 1 -19z m63 9 c0 -8 -6 -14 -14
-14 -8 0 -12 6 -9 14 3 7 9 13 14 13 5 0 9 -6 9 -13z m47 -9 c-3 -8 -6 -5 -6
6 -1 11 2 17 5 13 3 -3 4 -12 1 -19z m70 0 c-3 -8 -6 -5 -6 6 -1 11 2 17 5 13
3 -3 4 -12 1 -19z m43 18 c0 -3 -4 -8 -10 -11 -5 -3 -10 -1 -10 4 0 6 5 11 10
11 6 0 10 -2 10 -4z m17 -18 c-3 -8 -6 -5 -6 6 -1 11 2 17 5 13 3 -3 4 -12 1
-19z m20 0 c-3 -8 -6 -5 -6 6 -1 11 2 17 5 13 3 -3 4 -12 1 -19z m30 0 c-3 -8
-6 -5 -6 6 -1 11 2 17 5 13 3 -3 4 -12 1 -19z m83 7 c0 -8 -2 -15 -4 -15 -2 0
-6 7 -10 15 -3 8 -1 15 4 15 6 0 10 -7 10 -15z m57 -7 c-3 -8 -6 -5 -6 6 -1
11 2 17 5 13 3 -3 4 -12 1 -19z m28 13 c3 -5 2 -12 -3 -15 -5 -3 -9 1 -9 9 0
17 3 19 12 6z m22 -13 c-3 -8 -6 -5 -6 6 -1 11 2 17 5 13 3 -3 4 -12 1 -19z
m-660 -90 c-3 -8 -6 -5 -6 6 -1 11 2 17 5 13 3 -3 4 -12 1 -19z m50 -25 c-3
-10 -5 -2 -5 17 0 19 2 27 5 18 2 -10 2 -26 0 -35z m26 23 c-4 -17 0 -25 14
-29 15 -4 14 -5 -4 -6 -19 -1 -23 4 -23 29 0 17 4 30 9 30 4 0 6 -11 4 -24z
m51 9 c-4 -8 -8 -15 -10 -15 -2 0 -4 7 -4 15 0 8 4 15 10 15 5 0 7 -7 4 -15z
m-102 -43 c-7 -2 -12 -10 -12 -18 0 -9 -5 -12 -10 -9 -6 4 -3 15 7 30 10 13
20 18 22 12 2 -6 -1 -13 -7 -15z m-45 -12 c3 -10 2 -11 -4 -4 -4 6 -15 14 -23
17 -11 5 -9 6 4 4 11 -1 21 -9 23 -17z m183 13 c-8 -3 -19 -12 -23 -19 -4 -8
-12 -14 -17 -14 -6 0 -2 9 7 20 10 11 24 20 33 19 13 0 13 -1 0 -6z m-172 -50
c-10 -2 -26 -2 -35 0 -10 3 -2 5 17 5 19 0 27 -2 18 -5z m170 0 c-10 -2 -26
-2 -35 0 -10 3 -2 5 17 5 19 0 27 -2 18 -5z m-158 -17 c0 -2 -11 -6 -25 -8
-14 -3 -25 -1 -25 3 0 5 11 9 25 9 14 0 25 -2 25 -4z m170 -4 c0 -5 -13 -7
-30 -4 -16 2 -30 6 -30 8 0 2 14 4 30 4 17 0 30 -4 30 -8z m-106 -42 c29 0 45
-4 41 -10 -3 -6 1 -17 9 -26 9 -9 13 -21 9 -27 -5 -8 -9 -6 -11 6 -2 9 -8 17
-13 17 -5 0 -9 7 -9 15 0 8 -5 15 -11 15 -7 0 -9 -10 -7 -25 3 -14 1 -28 -3
-31 -5 -3 -10 10 -10 28 l-2 33 -7 -35 -7 -35 -2 33 c-1 31 -1 32 -20 13 -10
-10 -21 -25 -24 -32 -3 -8 -6 -5 -6 9 -1 13 5 22 14 22 19 0 19 7 0 27 -14 14
-18 14 -34 -1 -10 -9 -22 -16 -27 -16 -5 0 4 12 21 26 26 22 31 23 41 10 7
-11 27 -16 58 -16z m76 10 c0 -5 7 -10 15 -10 8 0 15 -4 15 -10 0 -15 -9 -12
-37 10 -19 15 -21 20 -9 20 9 0 16 -4 16 -10z"/>
<path d="M90 815 c0 -23 3 -24 83 -28 l82 -3 -82 -2 c-76 -2 -83 -4 -83 -22 0
-11 1 -20 3 -20 1 0 67 -5 147 -10 80 -6 161 -12 180 -15 144 -21 262 -53 377
-101 l82 -35 38 19 c144 73 360 118 666 138 76 5 87 8 87 25 0 16 -10 19 -87
22 l-88 3 88 2 c85 2 88 3 85 25 -3 21 -6 22 -98 19 -212 -7 -501 -81 -653
-167 l-41 -24 -55 29 c-178 91 -405 149 -638 164 l-93 6 0 -25z m263 -42 c-7
-2 -21 -2 -30 0 -10 3 -4 5 12 5 17 0 24 -2 18 -5z m1070 0 c-7 -2 -19 -2 -25
0 -7 3 -2 5 12 5 14 0 19 -2 13 -5z m-1026 -9 c-3 -3 -12 -4 -19 -1 -8 3 -5 6
6 6 11 1 17 -2 13 -5z m980 0 c-3 -3 -12 -4 -19 -1 -8 3 -5 6 6 6 11 1 17 -2
13 -5z"/>
<path d="M60 692 c0 -17 13 -19 148 -25 137 -6 177 -10 322 -39 76 -14 212
-55 287 -84 l62 -25 58 25 c68 28 205 69 283 84 145 29 185 33 323 39 134 6
147 8 147 25 0 16 -9 18 -87 18 -210 0 -482 -53 -673 -129 l-54 -22 -66 25
c-192 76 -456 126 -662 126 -79 0 -88 -2 -88 -18z"/>
<path d="M1530 603 c-35 -24 -48 -43 -55 -82 -8 -42 -4 -46 33 -27 41 21 72
63 72 97 0 33 -14 37 -50 12z"/>
<path d="M85 570 c12 -13 31 -20 54 -20 l36 0 -25 20 c-14 11 -38 20 -54 20
-28 0 -29 0 -11 -20z"/>
<path d="M180 582 c0 -15 46 -52 63 -52 25 0 21 16 -9 39 -27 21 -54 28 -54
13z"/>
<path d="M284 554 c3 -9 6 -19 6 -24 0 -5 14 -18 30 -30 39 -28 41 -5 4 39
-27 33 -50 41 -40 15z"/>
<path d="M1390 557 c-47 -36 -64 -104 -37 -141 12 -16 14 -16 33 1 39 34 55
92 38 137 -7 19 -14 20 -34 3z"/>
<path d="M23 544 c-28 -12 -10 -25 30 -22 23 2 42 8 42 13 0 11 -52 17 -72 9z"/>
<path d="M103 505 l-28 -24 26 -1 c21 0 69 31 69 45 0 14 -43 2 -67 -20z"/>
<path d="M1030 523 c-8 -4 -20 -13 -27 -22 -24 -31 -15 -40 42 -40 62 0 70 12
30 47 -14 12 -26 22 -28 21 -1 0 -9 -3 -17 -6z"/>
<path d="M1625 518 c-30 -16 -31 -18 -15 -28 33 -21 123 -3 135 28 6 16 -91
16 -120 0z"/>
<path d="M380 496 c0 -14 11 -38 25 -53 24 -28 24 -28 25 -5 0 25 -29 82 -42
82 -4 0 -8 -11 -8 -24z"/>
<path d="M174 495 c-18 -14 -16 -15 25 -13 25 2 46 9 49 16 5 17 -50 16 -74
-3z"/>
<path d="M1250 446 c-17 -36 -18 -49 -8 -77 6 -19 18 -42 26 -52 15 -17 17
-16 34 15 23 44 22 86 -2 126 -11 17 -22 32 -25 32 -4 0 -15 -20 -25 -44z"/>
<path d="M252 473 c-23 -9 -1 -23 38 -23 41 0 61 14 34 24 -18 7 -53 7 -72 -1z"/>
<path d="M460 418 c1 -39 17 -78 34 -78 12 0 6 61 -9 90 -9 17 -18 30 -20 30
-3 0 -5 -19 -5 -42z"/>
<path d="M1543 440 c-13 -5 -23 -13 -23 -18 0 -25 121 -45 135 -22 12 20 -79
53 -112 40z"/>
<path d="M600 315 l0 -125 90 0 c89 0 90 0 90 25 0 24 -3 25 -60 25 -57 0 -60
1 -60 25 0 23 4 25 45 25 41 0 45 2 45 25 0 23 -4 25 -45 25 -41 0 -45 2 -45
25 0 24 3 25 61 25 57 0 60 1 57 23 -3 21 -8 22 -90 25 l-88 3 0 -126z"/>
<path d="M825 415 c-34 -33 -33 -77 1 -104 15 -12 36 -21 48 -21 31 0 48 -15
44 -36 -4 -25 -42 -30 -65 -7 -20 20 -63 19 -63 -2 0 -26 51 -55 97 -55 54 0
93 33 93 79 0 38 -27 63 -85 79 -45 12 -60 34 -29 46 24 9 31 8 48 -10 20 -19
58 -9 54 14 -9 44 -105 56 -143 17z"/>
<path d="M1020 315 l0 -125 30 0 30 0 0 125 0 125 -30 0 -30 0 0 -125z"/>
<path d="M314 421 c10 -15 65 -34 82 -27 13 5 14 9 4 21 -13 16 -95 22 -86 6z"/>
<path d="M1441 379 c-23 -9 -23 -11 -8 -26 19 -19 110 -24 128 -6 25 25 -73
52 -120 32z"/>
<path d="M386 356 c3 -7 16 -18 30 -25 51 -23 74 -6 32 23 -28 20 -69 21 -62
2z"/>
<path d="M521 347 c-13 -34 -14 -67 -2 -86 7 -11 11 -10 20 7 13 25 14 72 1
92 -7 11 -11 9 -19 -13z"/>
<path d="M1133 363 c-30 -6 -29 -21 3 -33 29 -11 24 -31 -6 -23 -16 4 -20 0
-20 -21 0 -23 4 -26 35 -26 35 0 36 1 33 36 -1 19 -6 38 -11 41 -4 2 -3 11 4
19 12 15 8 16 -38 7z m7 -83 c0 -5 -4 -10 -10 -10 -5 0 -10 5 -10 10 0 6 5 10
10 10 6 0 10 -4 10 -10z m30 0 c0 -5 -4 -10 -10 -10 -5 0 -10 5 -10 10 0 6 5
10 10 10 6 0 10 -4 10 -10z"/>
<path d="M1302 294 c-17 -20 -33 -45 -35 -56 -7 -25 -7 -25 37 40 42 60 41 68
-2 16z"/>
<path d="M420 300 c0 -13 52 -60 67 -60 17 0 17 25 1 37 -24 17 -68 33 -68 23z"/>
<path d="M1348 296 c-25 -19 -23 -23 18 -36 35 -12 58 -10 111 11 27 10 27 11
9 25 -25 18 -115 18 -138 0z"/>
<path d="M1110 220 c0 -13 7 -20 20 -20 11 0 20 5 20 10 0 6 4 10 10 10 5 0 6
-7 3 -17 -4 -11 -3 -14 5 -9 7 4 12 16 12 27 0 24 -28 25 -46 2 -13 -17 -14
-17 -8 0 3 9 1 17 -5 17 -6 0 -11 -9 -11 -20z"/>
<path d="M512 198 c7 -19 38 -22 38 -4 0 10 -9 16 -21 16 -12 0 -19 -5 -17
-12z"/>
</g>
</svg>
